<svg version="1.1" id="Layer_1" xmlns="http://www.w3.org/2000/svg" xmlns:xlink="http://www.w3.org/1999/xlink" x="0px" y="0px"
	 width="100%" viewBox="0 0 146 146" enable-background="new 0 0 146 146" xml:space="preserve">
<path fill="#090B0A" opacity="1.000000" stroke="none" 
	d="
M105.000000,147.000000 
	C70.000000,147.000000 35.500000,147.000000 1.000000,147.000000 
	C1.000000,98.333336 1.000000,49.666668 1.000000,1.000000 
	C49.666668,1.000000 98.333336,1.000000 147.000000,1.000000 
	C147.000000,49.666668 147.000000,98.333336 147.000000,147.000000 
	C133.166672,147.000000 119.333336,147.000000 105.000000,147.000000 
M85.676620,101.060753 
	C84.780281,101.682266 83.883934,102.303787 82.390099,103.281303 
	C80.742226,104.243256 79.094360,105.205208 77.812660,105.953400 
	C81.777725,108.629311 85.317375,110.858673 88.684357,113.323898 
	C95.500816,118.314720 102.206779,123.456154 108.991234,128.491119 
	C113.315796,131.700500 118.136604,132.213287 123.165314,130.633759 
	C130.529404,128.320679 134.551666,122.245544 135.458572,112.731323 
	C135.177948,112.130226 134.897339,111.529137 134.194885,110.307594 
	C132.038040,107.763977 130.186630,104.842133 127.637878,102.783821 
	C125.122398,100.752373 121.901489,99.594444 118.897072,97.379219 
	C117.603638,97.227661 116.310211,97.076103 114.259804,96.971672 
	C113.527969,96.798080 112.796135,96.624489 111.748093,95.776459 
	C108.151978,96.087959 104.555870,96.399460 100.337898,96.975777 
	C99.891167,96.980949 99.444443,96.986122 98.721939,96.560326 
	C98.127205,96.876137 97.532478,97.191948 96.252296,97.876602 
	C92.976082,98.985786 89.699860,100.094963 85.676620,101.060753 
M123.066887,88.341293 
	C122.446205,87.550575 121.825531,86.759857 120.746429,85.516258 
	C120.070625,84.198067 119.394829,82.879875 118.863182,80.867317 
	C118.314560,80.233978 117.765938,79.600647 116.726097,78.543968 
	C116.061745,77.210503 115.397400,75.877037 114.869301,73.847649 
	C114.310585,73.222046 113.751862,72.596451 112.729607,71.524963 
	C112.059082,70.205589 111.388565,68.886223 110.873108,66.823830 
	C109.953667,65.543083 109.034233,64.262337 107.599907,62.518612 
	C102.393280,53.423641 97.276222,44.275932 91.959518,35.245773 
	C83.495232,20.869593 66.111641,20.949270 57.814110,35.348324 
	C52.165768,45.150135 46.559124,54.976067 40.959137,64.805626 
	C32.971249,78.826645 24.874578,92.788139 17.086208,106.919365 
	C13.038996,114.262642 14.655450,121.869492 20.751677,127.274849 
	C26.515219,132.385239 34.359730,132.915649 40.972298,128.305176 
	C46.153694,124.692566 51.034340,120.651688 56.153992,116.946709 
	C64.190422,111.130920 72.315628,105.437782 81.091866,99.860191 
	C81.740616,99.327309 82.389366,98.794426 83.610153,97.794434 
	C87.079758,96.554016 90.549362,95.313591 94.306335,94.493019 
	C94.890259,94.147842 95.474190,93.802666 96.661095,93.124672 
	C97.114113,93.109016 97.567139,93.093361 98.271767,93.492294 
	C98.872429,93.226631 99.473083,92.960968 100.916809,92.304543 
	C104.927902,92.334137 108.938988,92.363739 113.073082,92.981125 
	C114.046890,92.995354 115.020699,93.009583 116.676552,92.959549 
	C117.099716,93.115356 117.522873,93.271164 118.133736,94.069237 
	C121.183846,95.379204 124.233948,96.689171 127.284058,97.999130 
	C127.573868,97.582497 127.863670,97.165855 128.153473,96.749222 
	C127.388649,95.877861 126.623817,95.006500 125.281250,93.654800 
	C124.517151,92.111206 123.753044,90.567604 123.066887,88.341293 
z"/>
<path fill="#FAFAFA" opacity="1.000000" stroke="none" 
	d="
M118.719025,81.561684 
	C119.394829,82.879875 120.070625,84.198067 120.970505,86.053848 
	C121.792709,87.402298 122.390831,88.213150 122.988945,89.024010 
	C123.753044,90.567604 124.517151,92.111206 125.454155,94.333435 
	C123.066719,94.483696 120.506378,93.955330 117.946037,93.426971 
	C117.522873,93.271164 117.099716,93.115356 116.087509,92.776428 
	C114.649002,92.526649 113.799545,92.459991 112.950081,92.393333 
	C108.938988,92.363739 104.927902,92.334137 100.237274,92.378220 
	C99.045204,92.660500 98.532684,92.869102 98.020157,93.077705 
	C97.567139,93.093361 97.114113,93.109016 96.084061,93.208466 
	C95.011009,93.552559 94.514992,93.812866 94.018967,94.073174 
	C90.549362,95.313591 87.079758,96.554016 83.008217,98.025940 
	C81.738602,98.735870 81.070915,99.214294 80.403236,99.692711 
	C72.315628,105.437782 64.190422,111.130920 56.153992,116.946709 
	C51.034340,120.651688 46.153694,124.692566 40.972298,128.305176 
	C34.359730,132.915649 26.515219,132.385239 20.751677,127.274849 
	C14.655450,121.869492 13.038996,114.262642 17.086208,106.919365 
	C24.874578,92.788139 32.971249,78.826645 40.959137,64.805626 
	C46.559124,54.976067 52.165768,45.150135 57.814110,35.348324 
	C66.111641,20.949270 83.495232,20.869593 91.959518,35.245773 
	C97.276222,44.275932 102.393280,53.423641 107.878891,63.087940 
	C109.011261,64.960464 109.864647,66.263657 110.718040,67.566849 
	C111.388565,68.886223 112.059082,70.205589 112.948296,72.066750 
	C113.689003,73.253548 114.211029,73.898560 114.733047,74.543571 
	C115.397400,75.877037 116.061745,77.210503 116.981468,79.071144 
	C117.730904,80.252769 118.224968,80.907227 118.719025,81.561684 
z"/>
<path fill="#F6F6F6" opacity="1.000000" stroke="none" 
	d="
M98.997711,96.991287 
	C99.444443,96.986122 99.891167,96.980949 101.106827,96.918121 
	C105.271935,96.723946 108.668121,96.587418 112.064301,96.450897 
	C112.796135,96.624489 113.527969,96.798080 114.918015,97.161987 
	C116.714172,97.585968 117.852112,97.819633 118.990051,98.053299 
	C121.901489,99.594444 125.122398,100.752373 127.637878,102.783821 
	C130.186630,104.842133 132.038040,107.763977 134.314377,110.885941 
	C134.633408,111.973289 134.832947,112.482300 135.032486,112.991310 
	C134.551666,122.245544 130.529404,128.320679 123.165314,130.633759 
	C118.136604,132.213287 113.315796,131.700500 108.991234,128.491119 
	C102.206779,123.456154 95.500816,118.314720 88.684357,113.323898 
	C85.317375,110.858673 81.777725,108.629311 77.812660,105.953400 
	C79.094360,105.205208 80.742226,104.243256 83.022484,103.108490 
	C84.577789,102.358490 85.500717,101.781311 86.423645,101.204140 
	C89.699860,100.094963 92.976082,98.985786 96.869308,97.771133 
	C97.990112,97.440865 98.493912,97.216072 98.997711,96.991287 
z"/>
<path fill="#252525" opacity="1.000000" stroke="none" 
	d="
M118.039886,93.748100 
	C120.506378,93.955330 123.066719,94.483696 125.743027,94.573608 
	C126.623817,95.006500 127.388649,95.877861 128.153473,96.749222 
	C127.863670,97.165855 127.573868,97.582497 127.284058,97.999130 
	C124.233948,96.689171 121.183846,95.379204 118.039886,93.748100 
z"/>
<path fill="#252525" opacity="1.000000" stroke="none" 
	d="
M111.906197,96.113678 
	C108.668121,96.587418 105.271935,96.723946 101.417755,96.785713 
	C104.555870,96.399460 108.151978,96.087959 111.906197,96.113678 
z"/>
<path fill="#252525" opacity="1.000000" stroke="none" 
	d="
M110.795578,67.195343 
	C109.864647,66.263657 109.011261,64.960464 108.136337,63.319427 
	C109.034233,64.262337 109.953667,65.543083 110.795578,67.195343 
z"/>
<path fill="#252525" opacity="1.000000" stroke="none" 
	d="
M118.943558,97.716263 
	C117.852112,97.819633 116.714172,97.585968 115.296509,97.138428 
	C116.310211,97.076103 117.603638,97.227661 118.943558,97.716263 
z"/>
<path fill="#252525" opacity="1.000000" stroke="none" 
	d="
M113.011581,92.687225 
	C113.799545,92.459991 114.649002,92.526649 115.746490,92.808563 
	C115.020699,93.009583 114.046890,92.995354 113.011581,92.687225 
z"/>
<path fill="#252525" opacity="1.000000" stroke="none" 
	d="
M86.050133,101.132446 
	C85.500717,101.781311 84.577789,102.358490 83.321228,102.930489 
	C83.883934,102.303787 84.780281,101.682266 86.050133,101.132446 
z"/>
<path fill="#252525" opacity="1.000000" stroke="none" 
	d="
M123.027916,88.682648 
	C122.390831,88.213150 121.792709,87.402298 121.199722,86.280289 
	C121.825531,86.759857 122.446205,87.550575 123.027916,88.682648 
z"/>
<path fill="#252525" opacity="1.000000" stroke="none" 
	d="
M135.245529,112.861313 
	C134.832947,112.482300 134.633408,111.973289 134.525299,111.196159 
	C134.897339,111.529137 135.177948,112.130226 135.245529,112.861313 
z"/>
<path fill="#252525" opacity="1.000000" stroke="none" 
	d="
M80.747551,99.776451 
	C81.070915,99.214294 81.738602,98.735870 82.722198,98.259499 
	C82.389366,98.794426 81.740616,99.327309 80.747551,99.776451 
z"/>
<path fill="#252525" opacity="1.000000" stroke="none" 
	d="
M98.859825,96.775803 
	C98.493912,97.216072 97.990112,97.440865 97.212036,97.586700 
	C97.532478,97.191948 98.127205,96.876137 98.859825,96.775803 
z"/>
<path fill="#252525" opacity="1.000000" stroke="none" 
	d="
M94.162651,94.283096 
	C94.514992,93.812866 95.011009,93.552559 95.782578,93.374870 
	C95.474190,93.802666 94.890259,94.147842 94.162651,94.283096 
z"/>
<path fill="#252525" opacity="1.000000" stroke="none" 
	d="
M98.145966,93.285004 
	C98.532684,92.869102 99.045204,92.660500 99.815735,92.573601 
	C99.473083,92.960968 98.872429,93.226631 98.145966,93.285004 
z"/>
<path fill="#252525" opacity="1.000000" stroke="none" 
	d="
M118.791107,81.214500 
	C118.224968,80.907227 117.730904,80.252769 117.227081,79.282822 
	C117.765938,79.600647 118.314560,80.233978 118.791107,81.214500 
z"/>
<path fill="#252525" opacity="1.000000" stroke="none" 
	d="
M114.801178,74.195610 
	C114.211029,73.898560 113.689003,73.253548 113.180061,72.289696 
	C113.751862,72.596451 114.310585,73.222046 114.801178,74.195610 
z"/>
</svg>