<?xml version="1.0" encoding="UTF-8"?>
<svg version="1.1" viewBox="0 0 956 956" width="239" height="239" xmlns="http://www.w3.org/2000/svg">
<path transform="translate(473,272)" d="m0 0h21l17 4 14 7 11 10 8 7 9 13 12 23 12 20 32 56 13 23 14 24 9 17 10 17 13 23 15 26 10 16 2 6-6 5-10 2 5 5 11 8 10 6 9 7 6 9 5 14 2 7v18l-3 13-7 14-9 10-7 7-11 8-8 4-9 3-18 2-19-2-10-5-15-12-11-8-12-9-16-13-16-12-11-9-8-7-17-12-10-6-9-3-7-3-2-1 2-4 25-15 1-2-5-5v-2h-9l-18 10-38 28-13 10-14 11-10 9-14 10-13 10-14 12-16 12-13 9-12 6-10 2h-17l-15-2-16-8-9-8-9-11-8-13-4-10v-32l5-14 14-24 16-29 14-24 14-25 7-11 15-27 9-16 14-24 15-27 14-24 14-25 20-35 9-14 15-15 10-7 9-4z" fill="#FDFDFD"/>
<path transform="translate(610,562)" d="m0 0 25 1 21 5 16 6 21 11 16 10 7 8 6 15 2 9v19l-3 12-8 15-11 12-12 9-11 5-13 3h-20l-13-4-12-7-19-13-17-13-16-12-5-2-12-9-11-10-5-5-12-10-13-8-11-4-6-2 3-3 22-12 16-8 15-6 15-5 22-5z" fill="#FDFDFD"/>
<path transform="translate(564,336)" d="m0 0 3 3 14 24 16 28 13 23 12 21 14 24 9 17 10 17 13 23 15 26 10 16 2 6-6 5-10 2 5 5 11 8 10 6 9 7 6 9 5 14 2 7v18l-3 13-7 14-9 10-7 7-11 8-8 4-9 3-18 2-19-2-10-5-15-12-11-8-12-9-16-13-5-5 4 2 19 14 12 9 27 18 13 5 4 1h20l16-4 11-6 10-8 9-10 8-15 3-12v-19l-4-15-6-12-8-7-23-13-17-8-20-6-10-2-25-1-23 2-22 5-21 7-24 11-21 12-4 2 9 3 14 7 12 9 7 6h-3l-14-10-10-6-9-3-7-3-2-1 2-4 25-15 1-2-5-5v-2h-11l3-3 16-8 18-8 19-6 21-5 13-2 14-1h14l24 3 19 5 19 8 8 4-6-11-13-23-12-21-15-26-16-28-14-25-14-24-10-18-12-21-15-26z" fill="#605F5F"/>
<path transform="translate(473,272)" d="m0 0h21l17 4 14 7 11 10 8 7 9 13 11 21-1 2-14-24-8-11-10-10-13-8-13-5-10-2h-22l-15 4-16 8-11 9-8 10-11 19-12 21-14 24-15 27-14 24-14 25-14 24-15 27-13 22-15 27-12 21-13 23-8 14-5 13-3 14v9l3 14 5 12 8 11 5 5 9 8 12 6 15 4h20l13-4 13-7 17-12 14-11 2 1-10 9-18 13-10 7-12 6-10 2h-17l-15-2-16-8-9-8-9-11-8-13-4-10v-32l5-14 14-24 16-29 14-24 14-25 7-11 15-27 9-16 14-24 15-27 14-24 14-25 20-35 9-14 15-15 10-7 9-4z" fill="#605F5F"/>
<path transform="translate(543,633)" d="m0 0 4 2 10 8 6 5h-3l-9-7-8-7z" fill="#605F5F"/>
</svg>
